<svg width="41" height="41" viewBox="0 0 41 41" fill="none" xmlns="http://www.w3.org/2000/svg">
<path d="M20.082 0.0689087C9.08202 0.0689087 0.0820312 9.08497 0.0820312 20.1894C0.0820312 30.2296 7.40202 38.5629 16.962 40.0689V26.0127H11.882V20.1894H16.962V15.7516C16.962 10.7115 19.942 7.9404 24.522 7.9404C26.702 7.9404 28.982 8.32192 28.982 8.32192V13.2818H26.462C23.982 13.2818 23.202 14.8279 23.202 16.4143V20.1894H28.762L27.862 26.0127H23.202V40.0689C27.9149 39.3216 32.2064 36.9073 35.3018 33.2618C38.3973 29.6163 40.0927 24.9798 40.082 20.1894C40.082 9.08497 31.082 0.0689087 20.082 0.0689087Z" fill="#7C7C7C"/>
</svg>
